<?xml version="1.0" encoding="UTF-8"?>
<!DOCTYPE svg PUBLIC "-//W3C//DTD SVG 1.1//EN" "http://www.w3.org/Graphics/SVG/1.1/DTD/svg11.dtd">
<svg version="1.1" xmlns="http://www.w3.org/2000/svg" xmlns:xlink="http://www.w3.org/1999/xlink" x="0px" y="0px" width="200" height="200" viewBox="0, 0, 1000, 1000">
  <g id="Layer 1">
    <path id="loadcircle" d="M500,0 C223.858,0 0,223.858 0,500 C0,776.142 223.858,1000 500,1000 C776.142,1000 1000,776.142 1000,500 C1000,223.858 776.142,0 500,0 z" fill="url(#Gradient_1)">
<animateTransform attributeName="transform" attributeType="XML" type="rotate" from="0 500 500" to="360 500 500" dur="3s" additive="replace" repeatDur="indefinite" repeatCount="indefinite" fill="freeze"/>    
</path>
<!--
    <path d="M500,1000 C223.858,1000 0,776.142 0,500 C0,223.858 223.858,-0 500,-0 C776.142,-0 1000,223.858 1000,500 C1000,776.142 776.142,1000 500,1000 z" fill="url(#Gradient_2)">
    <animateTransform attributeName="transform" attributeType="XML" type="rotate" from="360 500 500" to="0 500 500" dur="1s" additive="replace" repeatDur="indefinite" repeatCount="indefinite" fill="freeze"/>   
    </path>
-->
    <path d="M500,948.242 C252.443,948.242 51.758,747.557 51.758,500 C51.758,252.443 252.443,51.758 500,51.758 C747.557,51.758 948.242,252.443 948.242,500 C948.242,747.557 747.557,948.242 500,948.242 z" fill="#E6DEDE"/>
    <path d="M663.256,241.199 C663.256,241.199 663.565,374.805 613.568,535.917 C640.561,523.576 659.412,506.199 659.412,506.199 C659.412,506.199 642.13,526.467 608.193,552.292 C608.19,552.302 608.196,552.315 608.193,552.324 C595.256,589.642 576.817,630.242 557.162,669.136 C563.967,669.086 570.871,668.739 577.818,667.949 C615.623,663.649 647.599,643.511 647.599,643.511 C647.599,643.511 612.239,672.253 548.787,697.542 C545.652,698.792 543.706,699.584 540.756,700.761 C497.04,782.817 453.006,850.042 453.006,850.042 L468.318,869.886 C473.518,847.229 477.284,836.074 488.568,810.48 C496.439,792.627 503.802,782.687 513.381,769.417 C513.381,769.417 592.762,756.705 627.943,713.449 C679.357,650.233 696.32,584.469 694.412,469.511 C693.38,407.342 663.256,241.199 663.256,241.199 z" fill="url(#Gradient_3)"/>
    <g>
      <path d="M559.594,130.114 C594.866,151.284 620.248,185.43 636.366,222.83 C637.489,225.434 645.916,246.449 646.218,250.035 C646.78,256.709 645.329,263.402 644.73,270.072 C643.415,284.708 641.667,299.216 639.541,313.757 C633.556,354.71 624.765,395.237 614.154,435.23 C589.128,529.547 554.258,621.417 512.728,709.664 C501.611,733.286 498.541,739.035 486.858,762.305 L486.448,763.088 C432.868,751.112 383.963,722.918 351.007,678.553 C329.039,648.981 315.712,614.66 307.589,578.946 C304.104,560.392 305.149,541.028 308.704,522.553 C307.33,541.17 318.188,564.387 330.732,577.524 C336.674,583.747 343.548,588.465 351.21,592.3 C333.15,570.307 307.74,490.977 359.472,444.984 C342.295,480.48 357.58,514.926 370.089,518.988 C338.239,428.8 433.987,381.812 459.815,356.92 C478.497,338.916 487.565,304.445 479.071,288.494 C514.397,329.508 497.953,389.719 496.883,406.319 C501.584,387.409 501.623,362.676 519.564,337.441 C554.618,288.151 612.236,210.152 559.594,130.114 z" fill="url(#Gradient_4)"/>
      <path d="M591.751,252.414 C607.721,281.471 616.725,314.032 622.009,346.617 C624.01,358.958 624.858,367.091 625.83,379.125 C626.007,381.315 626.578,383.539 626.211,385.705 C624.841,393.789 622.594,401.701 620.655,409.667 C614.237,436.027 606.741,462.025 599.009,488.022 C598.789,488.714 598.671,489.447 598.349,490.098 C596.883,493.059 585.215,504.143 582.681,506.654 C573.637,515.617 563.984,523.94 556.688,534.401 C521.517,584.824 539.429,640.617 544.184,638.824 C533.145,665.908 525.11,683.17 512.728,709.664 C510.566,714.289 508.621,719.033 506.089,723.466 C465.184,701.824 435.574,657.166 427.517,640.157 C421.517,627.49 407.116,579.964 428.178,544.168 C448.002,509.909 477.606,483.751 505.91,454.521 C534.216,425.289 562.473,401.221 579.881,364.772 C595.888,330.708 605.077,281.365 591.751,252.414 z" fill="url(#Gradient_5)"/>
    </g>
  </g>
  <defs>
    <linearGradient id="Gradient_1" gradientUnits="userSpaceOnUse" x1="0" y1="-500" x2="1000" y2="-500" gradientTransform="matrix(1, 0, 0, -1, 0, 0)">
      <stop offset="0" stop-color="#FFFFFF" stop-opacity="0"/>
      <stop offset="1" stop-color="#5E6A74"/>
    </linearGradient>
    <linearGradient id="Gradient_2" gradientUnits="userSpaceOnUse" x1="0" y1="500" x2="1000" y2="500">
      <stop offset="0" stop-color="#FFFFFF" stop-opacity="0"/>
      <stop offset="1" stop-color="#9B9CB0"/>
    </linearGradient>
    <linearGradient id="Gradient_3" gradientUnits="userSpaceOnUse" x1="539.699" y1="251.523" x2="599.775" y2="835.079">
      <stop offset="0.023" stop-color="#5CD400"/>
      <stop offset="0.357" stop-color="#5CD400"/>
      <stop offset="1" stop-color="#006EA0"/>
    </linearGradient>
    <linearGradient id="Gradient_4" gradientUnits="userSpaceOnUse" x1="0.512" y1="-0.103" x2="0.818" y2="-0.103" gradientTransform="matrix(122.756, -626.327, 673.344, 122.25, 349.942, 848.625)">
      <stop offset="0" stop-color="#EE2C21"/>
      <stop offset="1" stop-color="#FAB318"/>
    </linearGradient>
    <linearGradient id="Gradient_5" gradientUnits="userSpaceOnUse" x1="0.59" y1="0.036" x2="0.815" y2="0.036" gradientTransform="matrix(110.663, -494.297, 531.573, 109.332, 363.489, 832.691)">
      <stop offset="0" stop-color="#F0421F"/>
      <stop offset="1" stop-color="#FCCF18"/>
    </linearGradient>
  </defs>
</svg>
